<svg width="210" height="71" viewBox="0 0 210 71" fill="none" xmlns="http://www.w3.org/2000/svg">
<g clip-path="url(#clip0_31_333)">
<path d="M37.1622 55.8695C43.0258 55.8695 47.9206 54.6968 51.2858 52.4023C47.1048 55.7165 41.7511 57.7051 35.9895 57.7051C32.6753 57.7051 29.565 57.0422 26.7097 55.8695C26.7097 55.8695 37.1622 55.8695 37.1622 55.8695Z" fill="white"/>
<path d="M53.8352 50.1084C55.5178 48.1199 56.4356 45.5705 56.3846 42.5112C56.3846 35.271 51.1838 30.4271 44.2495 29.8153C48.5325 29.3054 52.6115 25.9912 52.6115 19.7197C52.6115 16.6605 51.6427 14.315 49.9091 12.4795C56.4356 16.9154 60.7185 24.4106 60.7185 32.9255C60.7695 39.6049 58.1182 45.6215 53.8352 50.1084Z" fill="white"/>
<path d="M23.9054 54.4934C16.3593 50.2105 11.3115 42.1544 11.3115 32.9256C11.3115 24.9716 15.0336 17.9353 20.8462 13.3974V52.352C20.8462 52.352 30.8907 50.5164 31.1457 44.4489C31.1457 44.041 31.1457 42.8683 31.1457 42.8683V11.001H33.0832C38.3349 11.001 41.8021 13.7543 41.8021 20.5867C41.8021 27.47 37.7231 29.9174 33.4401 29.9174V30.5802C39.5076 30.5802 44.9123 33.6905 44.6574 41.6445C44.4534 50.0065 32.2164 53.2697 23.9054 54.4934Z" fill="white"/>
<path d="M51.6937 6.66699H58.0672V13.0405H51.6937V6.66699Z" fill="white"/>
<path d="M58.0162 3.09766H61.0754V6.15692H58.0162V3.09766Z" fill="white"/>
<path d="M59.2399 6.62598H61.0754V8.50259H59.2399V6.62598Z" fill="white"/>
<path d="M55.6707 3.09766H57.5063V4.93321H55.6707V3.09766Z" fill="white"/>
<path d="M72.0887 34.812V19.2607H80.2468C83.2041 19.2607 84.7337 21.1473 84.7337 23.2378C84.7337 25.1753 83.51 26.501 82.0314 26.8069C83.663 27.0619 85.0396 28.6934 85.0396 30.631C85.0396 32.9764 83.459 34.812 80.5017 34.812H72.0887ZM81.3685 23.7986C81.3685 22.8299 80.6547 22.116 79.533 22.116H75.403V25.4812H79.533C80.6547 25.4812 81.3685 24.8184 81.3685 23.7986ZM81.6744 30.1721C81.6744 29.2033 80.9606 28.3365 79.6859 28.3365H75.403V31.9567H79.6859C80.9096 31.9567 81.6744 31.2938 81.6744 30.1721Z" fill="white"/>
<path d="M96.3079 34.812L93.2486 29.3053H90.8012V34.812H87.487V19.2607H94.7782C98.0414 19.2607 99.979 21.4022 99.979 24.2575C99.979 27.0109 98.2454 28.4895 96.5628 28.8974L100.081 34.812C100.132 34.812 96.3079 34.812 96.3079 34.812C96.3079 34.812 96.3079 34.812 96.3079 34.812ZM96.6648 24.3085C96.6648 22.9828 95.645 22.218 94.3194 22.218H90.8522V26.399H94.3194C95.6451 26.399 96.6648 25.5832 96.6648 24.3085Z" fill="white"/>
<path d="M101.764 27.0619C101.764 22.371 105.18 19.0059 109.871 19.0059C114.561 19.0059 118.029 22.371 118.029 27.0619C118.029 31.7528 114.612 35.118 109.871 35.118C105.231 35.118 101.764 31.7528 101.764 27.0619ZM114.612 27.0619C114.612 24.1556 112.726 21.9631 109.871 21.9631C107.015 21.9631 105.18 24.1556 105.18 27.0619C105.18 29.9682 107.015 32.1607 109.871 32.1607C112.777 32.1607 114.612 29.9682 114.612 27.0619Z" fill="white"/>
<path d="M130.317 34.812L129.348 32.1606H122.669L121.7 34.812H117.927L123.943 19.2607H128.073L134.09 34.812H130.317ZM126.034 22.5749L123.586 29.2543H128.43L126.034 22.5749Z" fill="white"/>
<path d="M135.517 34.812V19.2607H141.636C146.531 19.2607 149.896 22.371 149.896 27.0619C149.896 31.7527 146.531 34.812 141.636 34.812C141.636 34.812 135.517 34.812 135.517 34.812ZM146.531 27.0619C146.531 24.3085 144.848 22.167 141.636 22.167H138.832V31.9057H141.636C144.746 31.9057 146.531 29.7132 146.531 27.0619Z" fill="white"/>
<path d="M163.714 34.812L160.96 24.1046L158.258 34.812H154.74L150.304 19.2607H154.026L156.779 30.478L159.737 19.2607H162.337L165.294 30.478L167.997 19.2607H171.719L167.283 34.812H163.714Z" fill="white"/>
<path d="M182.936 34.812L181.967 32.1606H175.288L174.319 34.812H170.546L176.562 19.2607H180.692L186.709 34.812C186.709 34.812 182.936 34.812 182.936 34.812ZM178.653 22.5749L176.206 29.2543H181.049L178.653 22.5749Z" fill="white"/>
<path d="M190.941 34.812V28.4385L184.924 19.2608H188.698L192.573 25.5322L196.397 19.2607H200.17L194.204 28.4385V34.812L190.941 34.812Z" fill="white"/>
<path d="M72.5986 52.5046V40.5225H75.148V52.5046H72.5986Z" fill="white"/>
<path d="M85.0396 52.5046L79.329 44.7034V52.5046H76.7796V40.5225H79.38L84.9376 48.0176V40.5225H87.487V52.5046H85.0396Z" fill="white"/>
<path d="M89.1696 52.5046V40.5225H97.6336V42.7659H91.719V45.3153H97.5316V47.5588H91.719V52.5046L89.1696 52.5046Z" fill="white"/>
<path d="M98.0925 46.4879C98.0925 42.8677 100.744 40.3184 104.313 40.3184C107.933 40.3184 110.584 42.9187 110.584 46.4879C110.584 50.108 107.933 52.6574 104.313 52.6574C100.744 52.7084 98.0925 50.108 98.0925 46.4879ZM107.984 46.4879C107.984 44.2444 106.556 42.5618 104.364 42.5618C102.171 42.5618 100.744 44.2444 100.744 46.4879C100.744 48.7313 102.171 50.4139 104.364 50.4139C106.556 50.4139 107.984 48.7313 107.984 46.4879Z" fill="white"/>
<path d="M110.839 50.7716L112.216 48.8341C113.083 49.7008 114.358 50.4657 116.04 50.4657C117.417 50.4657 118.131 49.8028 118.131 49.14C118.131 46.9985 111.247 48.4771 111.247 43.9902C111.247 42.0017 112.981 40.3701 115.785 40.3701C117.672 40.3701 119.252 40.931 120.425 42.0527L118.997 43.9392C118.029 43.0215 116.754 42.6136 115.53 42.6136C114.46 42.6136 113.848 43.1234 113.848 43.8373C113.848 45.7238 120.731 44.4491 120.731 48.936C120.731 51.1285 119.15 52.7601 115.938 52.7601C113.644 52.7091 111.961 51.9443 110.839 50.7716Z" fill="white"/>
<path d="M124.861 52.5046V47.6097L120.272 40.5225H123.178L126.136 45.3153L129.093 40.5225H131.999L127.41 47.6097V52.5046H124.861Z" fill="white"/>
<path d="M131.183 50.7716L132.56 48.8341C133.427 49.7008 134.702 50.4657 136.384 50.4657C137.761 50.4657 138.475 49.8028 138.475 49.14C138.475 46.9985 131.591 48.4771 131.591 43.9902C131.591 42.0017 133.325 40.3701 136.129 40.3701C138.016 40.3701 139.596 40.931 140.769 42.0527L139.342 43.9392C138.373 43.0215 137.098 42.6136 135.874 42.6136C134.804 42.6136 134.192 43.1234 134.192 43.8373C134.192 45.7238 141.075 44.4491 141.075 48.936C141.075 51.1285 139.495 52.7601 136.282 52.7601C133.988 52.7091 132.305 51.9443 131.183 50.7716Z" fill="white"/>
<path d="M73.3487 60.1758V66.5504H72.5258V60.1758H73.3487Z" fill="white"/>
<path d="M74.8516 63.211C74.8516 62.7384 74.8421 62.3506 74.8138 61.972H75.5516L75.5989 62.7285H75.6177C75.8447 62.2934 76.3745 61.8682 77.131 61.8682C77.7649 61.8682 78.7485 62.2461 78.7485 63.8163V66.5498H77.916V63.9109C77.916 63.1735 77.6417 62.5583 76.8569 62.5583C76.3081 62.5583 75.8825 62.9461 75.7406 63.4095C75.7028 63.5139 75.684 63.6553 75.684 63.7973V66.5498H74.8516C74.8516 66.5498 74.8516 63.211 74.8516 63.211Z" fill="white"/>
<path d="M79.9853 65.6986C80.2311 65.859 80.6662 66.0298 81.0823 66.0298C81.6876 66.0298 81.9715 65.7269 81.9715 65.3483C81.9715 64.9513 81.7349 64.7338 81.1201 64.507C80.2972 64.2139 79.9094 63.7597 79.9094 63.211C79.9094 62.4735 80.5055 61.8682 81.4891 61.8682C81.9525 61.8682 82.3593 62.0003 82.6146 62.1515L82.4066 62.7568C82.2268 62.6437 81.8956 62.4919 81.47 62.4919C80.9784 62.4919 80.704 62.7759 80.704 63.1163C80.704 63.4948 80.9784 63.6651 81.5742 63.8919C82.3688 64.1948 82.7753 64.5918 82.7753 65.2727C82.7753 66.0766 82.1512 66.6444 81.0635 66.6444C80.5621 66.6444 80.0987 66.5215 79.777 66.3322L79.9853 65.6986Z" fill="white"/>
<path d="M83.8426 63.4666C83.8426 62.8797 83.8235 62.4071 83.8048 61.972H84.5521L84.5899 62.7568H84.6086C84.9491 62.1988 85.4883 61.8682 86.2356 61.8682C87.3421 61.8682 88.1745 62.8041 88.1745 64.1948C88.1745 65.8406 87.1719 66.6536 86.0937 66.6536C85.4884 66.6536 84.9586 66.3888 84.6845 65.9352H84.6655V68.4223H83.8426V63.4666C83.8426 63.4666 83.8426 63.4666 83.8426 63.4666ZM84.6655 64.6865C84.6655 64.8094 84.6845 64.9231 84.7032 65.0269C84.8547 65.604 85.3559 66.001 85.9517 66.001C86.8314 66.001 87.3421 65.2826 87.3421 64.2323C87.3421 63.3148 86.8597 62.5301 85.9802 62.5301C85.4127 62.5301 84.883 62.9369 84.7223 63.5613C84.6937 63.6651 84.6654 63.7881 84.6654 63.9017L84.6655 64.6865Z" fill="white"/>
<path d="M90.1492 60.6865C90.1584 60.9704 89.9504 61.1972 89.6194 61.1972C89.3263 61.1972 89.118 60.9704 89.118 60.6865C89.118 60.3934 89.3355 60.166 89.6382 60.166C89.9504 60.166 90.1492 60.3934 90.1492 60.6865ZM89.2221 66.5505V61.9728H90.0545V66.5505H89.2221Z" fill="white"/>
<path d="M91.4343 63.4002C91.4343 62.8613 91.4248 62.3979 91.3965 61.972H92.1247L92.153 62.8705H92.1911C92.3991 62.256 92.9003 61.8682 93.4583 61.8682C93.5529 61.8682 93.619 61.8774 93.6949 61.8964V62.6812C93.6098 62.6622 93.5247 62.6529 93.411 62.6529C92.8247 62.6529 92.4084 63.0973 92.295 63.7216C92.2762 63.8353 92.2572 63.9674 92.2572 64.1094V66.5497H91.4343V63.4002L91.4343 63.4002Z" fill="white"/>
<path d="M95.4907 60.6865C95.4999 60.9704 95.2919 61.1972 94.9609 61.1972C94.6678 61.1972 94.4595 60.9704 94.4595 60.6865C94.4595 60.3934 94.677 60.166 94.9797 60.166C95.2919 60.166 95.4906 60.3934 95.4907 60.6865ZM94.5637 66.5505V61.9728H95.396V66.5505H94.5637Z" fill="white"/>
<path d="M96.7757 63.211C96.7757 62.7384 96.7662 62.3506 96.7379 61.972H97.4757L97.523 62.7285H97.5417C97.7688 62.2934 98.2985 61.8682 99.0551 61.8682C99.6889 61.8682 100.673 62.2461 100.673 63.8163V66.5498H99.8401V63.9109C99.8401 63.1735 99.566 62.5583 98.781 62.5583C98.2322 62.5583 97.8066 62.9461 97.6646 63.4095C97.6269 63.5139 97.6081 63.6553 97.6081 63.7973V66.5498H96.7757C96.7757 66.5498 96.7757 63.211 96.7757 63.211Z" fill="white"/>
<path d="M105.967 61.9721C105.948 62.3033 105.929 62.672 105.929 63.23V65.8879C105.929 66.9376 105.721 67.581 105.277 67.978C104.832 68.3941 104.189 68.5268 103.612 68.5268C103.063 68.5268 102.458 68.394 102.089 68.1482L102.297 67.5146C102.6 67.7039 103.073 67.8741 103.64 67.8741C104.491 67.8741 105.116 67.4292 105.116 66.2757V65.765H105.097C104.841 66.1903 104.35 66.5307 103.64 66.5307C102.505 66.5307 101.692 65.5659 101.692 64.2987C101.692 62.7476 102.704 61.8682 103.754 61.8682C104.548 61.8682 104.983 62.2842 105.182 62.6622H105.201L105.239 61.972H105.967L105.967 61.9721ZM105.106 63.7788C105.106 63.6369 105.097 63.514 105.059 63.4003C104.908 62.9179 104.501 62.5209 103.896 62.5209C103.101 62.5209 102.534 63.192 102.534 64.2514C102.534 65.1499 102.988 65.8972 103.886 65.8972C104.397 65.8972 104.86 65.5757 105.04 65.046C105.087 64.9041 105.106 64.7431 105.106 64.6017C105.106 64.6017 105.106 63.7788 105.106 63.7788Z" fill="white"/>
<path d="M114.193 66.2665C113.824 66.3992 113.096 66.6167 112.235 66.6167C111.27 66.6167 110.476 66.3709 109.851 65.7748C109.303 65.2451 108.962 64.394 108.962 63.4009C108.972 61.4995 110.277 60.1094 112.415 60.1094C113.152 60.1094 113.729 60.2704 114.004 60.4025L113.805 61.0742C113.464 60.923 113.039 60.7995 112.396 60.7995C110.845 60.7995 109.832 61.7643 109.832 63.3628C109.832 64.9802 110.806 65.9358 112.292 65.9358C112.831 65.9358 113.199 65.8596 113.389 65.7656V63.8642H112.093V63.2024H114.193C114.193 63.2024 114.193 66.2665 114.193 66.2665H114.193V66.2665Z" fill="white"/>
<path d="M115.42 63.4002C115.42 62.8613 115.41 62.3979 115.382 61.972H116.11L116.138 62.8705H116.176C116.385 62.256 116.886 61.8682 117.444 61.8682C117.538 61.8682 117.605 61.8774 117.68 61.8964V62.6812C117.595 62.6622 117.51 62.6529 117.396 62.6529C116.81 62.6529 116.394 63.0973 116.28 63.7216C116.262 63.8353 116.243 63.9674 116.243 64.1094V66.5497H115.42V63.4002L115.42 63.4002Z" fill="white"/>
<path d="M122.56 64.2231C122.56 65.9161 121.387 66.6536 120.28 66.6536C119.041 66.6536 118.086 65.7459 118.086 64.2987C118.086 62.7666 119.088 61.8682 120.356 61.8682C121.671 61.8681 122.56 62.8232 122.56 64.2231ZM118.928 64.2704C118.928 65.2727 119.505 66.0298 120.318 66.0298C121.112 66.0298 121.709 65.2826 121.709 64.2514C121.709 63.4758 121.321 62.4919 120.337 62.4919C119.353 62.4919 118.928 63.4002 118.928 64.2704Z" fill="white"/>
<path d="M123.872 61.9727L124.477 64.2994C124.61 64.81 124.733 65.2832 124.818 65.7558H124.847C124.95 65.2924 125.102 64.8008 125.253 64.3086L126 61.9727H126.7L127.41 64.2613C127.58 64.8101 127.712 65.2925 127.816 65.7558H127.844C127.92 65.2925 128.043 64.8101 128.195 64.2711L128.847 61.9727H129.67L128.195 66.5504H127.438L126.738 64.3657C126.577 63.855 126.445 63.4009 126.331 62.8619H126.312C126.199 63.4101 126.057 63.8833 125.896 64.3749L125.159 66.5504H124.402L123.021 61.9727L123.872 61.9727Z" fill="white"/>
<path d="M131.502 60.6582V61.9727H132.694V62.6063H131.502V65.075C131.502 65.6422 131.663 65.9642 132.126 65.9642C132.344 65.9642 132.505 65.9359 132.608 65.9071L132.647 66.5314C132.486 66.5978 132.23 66.6451 131.909 66.6451C131.521 66.6451 131.209 66.5222 131.01 66.2948C130.774 66.049 130.689 65.6422 130.689 65.1032V62.6063H129.979V61.9727H130.689V60.8757L131.502 60.6582Z" fill="white"/>
<path d="M133.629 59.835H134.461V62.6913H134.48C134.613 62.4548 134.82 62.2464 135.076 62.1045C135.322 61.9631 135.615 61.8685 135.927 61.8685C136.542 61.8685 137.525 62.2465 137.525 63.8264V66.5501H136.693V63.9205C136.693 63.183 136.419 62.5587 135.634 62.5587C135.095 62.5587 134.669 62.9372 134.518 63.3913C134.471 63.5044 134.461 63.6273 134.461 63.7883V66.5501H133.629C133.629 66.5501 133.629 59.835 133.629 59.835Z" fill="white"/>
</g>
<defs>
<clipPath id="clip0_31_333">
<rect width="210" height="71" fill="white"/>
</clipPath>
</defs>
</svg>
